<mxfile host="app.diagrams.net" agent="Mozilla/5.0 (X11; Linux x86_64) AppleWebKit/537.36 (KHTML, like Gecko) Chrome/129.0.0.0 Safari/537.36 Edg/129.0.0.0" version="24.7.17">
  <diagram name="Page-1" id="PZ2bPy5SayvbnQ2g6Y0M">
    <mxGraphModel dx="2206" dy="868" grid="1" gridSize="10" guides="1" tooltips="1" connect="1" arrows="1" fold="1" page="1" pageScale="1" pageWidth="827" pageHeight="1169" math="0" shadow="0">
      <root>
        <mxCell id="0" />
        <mxCell id="1" parent="0" />
        <mxCell id="trZ3pEVafe0FjwNa-5by-3" value="Various council&amp;nbsp;&lt;div&gt;departments data&amp;nbsp;&lt;/div&gt;&lt;div&gt;(Rates, Registration etc)&lt;div&gt;- Excel&lt;/div&gt;&lt;div&gt;- Access&lt;/div&gt;&lt;/div&gt;" style="shape=dataStorage;whiteSpace=wrap;html=1;fixedSize=1;" vertex="1" parent="1">
          <mxGeometry x="-230" y="180" width="270" height="115" as="geometry" />
        </mxCell>
        <mxCell id="trZ3pEVafe0FjwNa-5by-4" value="Linker&lt;div&gt;- Convert Excel and access data to SQL&lt;/div&gt;" style="rounded=0;whiteSpace=wrap;html=1;" vertex="1" parent="1">
          <mxGeometry x="250" y="280" width="230" height="70" as="geometry" />
        </mxCell>
        <mxCell id="trZ3pEVafe0FjwNa-5by-5" value="" style="group" vertex="1" connectable="0" parent="1">
          <mxGeometry x="827" y="150" width="236" height="170" as="geometry" />
        </mxCell>
        <mxCell id="trZ3pEVafe0FjwNa-5by-1" value="" style="shape=cylinder3;whiteSpace=wrap;html=1;boundedLbl=1;backgroundOutline=1;size=15;" vertex="1" parent="trZ3pEVafe0FjwNa-5by-5">
          <mxGeometry width="236" height="170" as="geometry" />
        </mxCell>
        <mxCell id="trZ3pEVafe0FjwNa-5by-2" value="Geodatabase&lt;div&gt;- file&lt;/div&gt;&lt;div&gt;- RDBMS&lt;/div&gt;" style="text;html=1;align=center;verticalAlign=middle;whiteSpace=wrap;rounded=0;" vertex="1" parent="trZ3pEVafe0FjwNa-5by-5">
          <mxGeometry x="88" y="80" width="60" height="30" as="geometry" />
        </mxCell>
        <mxCell id="trZ3pEVafe0FjwNa-5by-8" value="" style="group" vertex="1" connectable="0" parent="1">
          <mxGeometry x="-40" y="410" width="120" height="60" as="geometry" />
        </mxCell>
        <mxCell id="trZ3pEVafe0FjwNa-5by-6" value="" style="shape=parallelogram;perimeter=parallelogramPerimeter;whiteSpace=wrap;html=1;fixedSize=1;" vertex="1" parent="trZ3pEVafe0FjwNa-5by-8">
          <mxGeometry width="120" height="60" as="geometry" />
        </mxCell>
        <mxCell id="trZ3pEVafe0FjwNa-5by-7" value="&lt;div&gt;- Excel&lt;/div&gt;&lt;div&gt;- Access&lt;/div&gt;" style="text;html=1;align=center;verticalAlign=middle;whiteSpace=wrap;rounded=0;" vertex="1" parent="trZ3pEVafe0FjwNa-5by-8">
          <mxGeometry x="30" y="15" width="60" height="30" as="geometry" />
        </mxCell>
        <mxCell id="trZ3pEVafe0FjwNa-5by-9" value="" style="group" vertex="1" connectable="0" parent="1">
          <mxGeometry x="650" y="420" width="180" height="80" as="geometry" />
        </mxCell>
        <mxCell id="trZ3pEVafe0FjwNa-5by-10" value="" style="shape=parallelogram;perimeter=parallelogramPerimeter;whiteSpace=wrap;html=1;fixedSize=1;" vertex="1" parent="trZ3pEVafe0FjwNa-5by-9">
          <mxGeometry width="180" height="80" as="geometry" />
        </mxCell>
        <mxCell id="trZ3pEVafe0FjwNa-5by-11" value="&lt;div&gt;&amp;nbsp;Update Commands&lt;/div&gt;&lt;div&gt;-&amp;nbsp;&lt;span style=&quot;background-color: initial;&quot;&gt;SQL&lt;/span&gt;&lt;/div&gt;&lt;div&gt;&lt;span style=&quot;background-color: initial;&quot;&gt;- Programming manipulation&lt;/span&gt;&lt;/div&gt;" style="text;html=1;align=center;verticalAlign=middle;whiteSpace=wrap;rounded=0;" vertex="1" parent="trZ3pEVafe0FjwNa-5by-9">
          <mxGeometry x="30" y="20" width="120" height="40" as="geometry" />
        </mxCell>
        <mxCell id="trZ3pEVafe0FjwNa-5by-12" value="" style="endArrow=classic;html=1;rounded=0;" edge="1" parent="1">
          <mxGeometry width="50" height="50" relative="1" as="geometry">
            <mxPoint x="-100" y="300" as="sourcePoint" />
            <mxPoint x="-30" y="440" as="targetPoint" />
            <Array as="points">
              <mxPoint x="-100" y="440" />
            </Array>
          </mxGeometry>
        </mxCell>
        <mxCell id="trZ3pEVafe0FjwNa-5by-13" value="" style="endArrow=classic;html=1;rounded=0;exitX=1;exitY=0.5;exitDx=0;exitDy=0;entryX=0;entryY=0.5;entryDx=0;entryDy=0;" edge="1" parent="1" source="trZ3pEVafe0FjwNa-5by-6" target="trZ3pEVafe0FjwNa-5by-4">
          <mxGeometry width="50" height="50" relative="1" as="geometry">
            <mxPoint x="390" y="450" as="sourcePoint" />
            <mxPoint x="200" y="440" as="targetPoint" />
            <Array as="points">
              <mxPoint x="140" y="440" />
              <mxPoint x="180" y="315" />
            </Array>
          </mxGeometry>
        </mxCell>
        <mxCell id="trZ3pEVafe0FjwNa-5by-14" value="" style="endArrow=classic;html=1;rounded=0;exitX=1;exitY=0.5;exitDx=0;exitDy=0;entryX=0;entryY=0.5;entryDx=0;entryDy=0;" edge="1" parent="1">
          <mxGeometry width="50" height="50" relative="1" as="geometry">
            <mxPoint x="480" y="320" as="sourcePoint" />
            <mxPoint x="660" y="445" as="targetPoint" />
            <Array as="points">
              <mxPoint x="550" y="320" />
              <mxPoint x="590" y="445" />
            </Array>
          </mxGeometry>
        </mxCell>
        <mxCell id="trZ3pEVafe0FjwNa-5by-15" value="" style="endArrow=classic;html=1;rounded=0;exitX=1;exitY=0.5;exitDx=0;exitDy=0;entryX=0.5;entryY=1;entryDx=0;entryDy=0;entryPerimeter=0;" edge="1" parent="1" source="trZ3pEVafe0FjwNa-5by-10" target="trZ3pEVafe0FjwNa-5by-1">
          <mxGeometry width="50" height="50" relative="1" as="geometry">
            <mxPoint x="390" y="450" as="sourcePoint" />
            <mxPoint x="1060" y="330" as="targetPoint" />
            <Array as="points">
              <mxPoint x="820" y="450" />
              <mxPoint x="945" y="450" />
            </Array>
          </mxGeometry>
        </mxCell>
        <mxCell id="trZ3pEVafe0FjwNa-5by-16" value="&lt;h1 style=&quot;margin-top: 0px;&quot;&gt;Findings&lt;/h1&gt;&lt;p&gt;&lt;/p&gt;&lt;ol&gt;&lt;li&gt;The Excel and Access databases have specific formats,&amp;nbsp;&lt;/li&gt;&lt;li&gt;At the moment we are not aware of the internal organisation/structure of council database&lt;/li&gt;&lt;li&gt;We can simulate the council databases but the real data will be different.&amp;nbsp;&lt;/li&gt;&lt;li&gt;Input needed to recreate the databases&lt;/li&gt;&lt;li&gt;The linking is completely dependent on the Geo-database Schema&lt;/li&gt;&lt;/ol&gt;&lt;p&gt;&lt;/p&gt;&lt;blockquote style=&quot;margin: 0 0 0 40px; border: none; padding: 0px;&quot;&gt;&lt;li&gt;Table definitions with field names, data types, and descriptions&lt;/li&gt;&lt;li&gt;Relationships between tables&lt;/li&gt;&lt;li&gt;Constraints on valid values&lt;/li&gt;&lt;li&gt;Spatial reference systems* (spatial column)&lt;/li&gt;&lt;/blockquote&gt;" style="text;html=1;whiteSpace=wrap;overflow=hidden;rounded=0;" vertex="1" parent="1">
          <mxGeometry x="110" y="530" width="530" height="240" as="geometry" />
        </mxCell>
      </root>
    </mxGraphModel>
  </diagram>
</mxfile>
